<svg width="128" height="128" viewBox="0 0 128 128" fill="none" xmlns="http://www.w3.org/2000/svg">
<defs>
<linearGradient id="blue" x1="18" y1="12" x2="111" y2="118" gradientUnits="userSpaceOnUse"><stop stop-color="#BAE6FD"/><stop offset=".45" stop-color="#38BDF8"/><stop offset="1" stop-color="#1D4ED8"/></linearGradient>
<filter id="glow" x="-50%" y="-50%" width="200%" height="200%"><feGaussianBlur stdDeviation="5" result="b"/><feMerge><feMergeNode in="b"/><feMergeNode in="SourceGraphic"/></feMerge></filter>
</defs>
<path d="M64 13L103 28V58C103 84 87 104 64 115C41 104 25 84 25 58V28L64 13Z" fill="#0F172A" stroke="url(#blue)" stroke-width="5" filter="url(#glow)"/>
<path d="M64 28L88 38V59C88 76 78 91 64 99C50 91 40 76 40 59V38L64 28Z" fill="#38BDF8" opacity=".25"/>
<rect x="43" y="58" width="42" height="31" rx="7" fill="#E0F2FE"/>
<path d="M52 58V49C52 42 57 36 64 36C71 36 76 42 76 49V58" stroke="#38BDF8" stroke-width="7" stroke-linecap="round"/>
<circle cx="64" cy="73" r="5" fill="#0F172A"/>
<path d="M64 77V83" stroke="#0F172A" stroke-width="4" stroke-linecap="round"/>
</svg>