<svg width="128" height="128" viewBox="0 0 128 128" fill="none" xmlns="http://www.w3.org/2000/svg">
<defs>
<linearGradient id="gold" x1="15" y1="10" x2="115" y2="120" gradientUnits="userSpaceOnUse">
<stop stop-color="#FFF7AD"/><stop offset=".35" stop-color="#FACC15"/><stop offset="1" stop-color="#B45309"/>
</linearGradient>
<filter id="glow" x="-50%" y="-50%" width="200%" height="200%"><feGaussianBlur stdDeviation="5" result="b"/><feMerge><feMergeNode in="b"/><feMergeNode in="SourceGraphic"/></feMerge></filter>
</defs>
<path d="M63 12L107 35V84L63 116L21 87V37L63 12Z" fill="#111827" stroke="url(#gold)" stroke-width="5" filter="url(#glow)"/>
<path d="M63 12L107 35L64 58L21 37L63 12Z" fill="#FDE68A" opacity=".9"/>
<path d="M64 58L107 35V84L64 116V58Z" fill="#D97706"/>
<path d="M64 58L21 37V87L64 116V58Z" fill="#FACC15"/>
<circle cx="49" cy="34" r="5" fill="#111827"/>
<circle cx="78" cy="34" r="5" fill="#111827"/>
<circle cx="84" cy="71" r="5" fill="#111827"/>
<circle cx="82" cy="93" r="5" fill="#111827"/>
<circle cx="45" cy="71" r="5" fill="#111827"/>
<circle cx="45" cy="93" r="5" fill="#111827"/>
</svg>