<svg width="128" height="128" viewBox="0 0 128 128" fill="none" xmlns="http://www.w3.org/2000/svg">
<defs>
<linearGradient id="gold" x1="15" y1="10" x2="115" y2="120" gradientUnits="userSpaceOnUse">
<stop stop-color="#FFF7AD"/><stop offset=".35" stop-color="#FACC15"/><stop offset="1" stop-color="#B45309"/>
</linearGradient>
<filter id="glow" x="-50%" y="-50%" width="200%" height="200%"><feGaussianBlur stdDeviation="5" result="b"/><feMerge><feMergeNode in="b"/><feMergeNode in="SourceGraphic"/></feMerge></filter>
</defs>
<rect x="16" y="16" width="96" height="96" rx="28" fill="#0F172A" stroke="url(#gold)" stroke-width="5" filter="url(#glow)"/>
<path d="M40 82C40 62 48 47 64 47C80 47 88 62 88 82V96H40V82Z" fill="#FACC15"/>
<path d="M50 49C48 34 56 26 64 26C72 26 80 34 78 49" stroke="#FDE68A" stroke-width="8" stroke-linecap="round"/>
<path d="M39 57C48 51 80 51 89 57C86 70 78 77 64 77C50 77 42 70 39 57Z" fill="#111827"/>
<ellipse cx="54" cy="62" rx="7" ry="5" fill="#E0F2FE"/>
<ellipse cx="74" cy="62" rx="7" ry="5" fill="#E0F2FE"/>
<path d="M56 87H72" stroke="#111827" stroke-width="5" stroke-linecap="round"/>
<circle cx="94" cy="36" r="11" fill="#FDE68A" stroke="#B45309" stroke-width="3"/>
<path d="M94 30V42M89 36H99" stroke="#B45309" stroke-width="3" stroke-linecap="round"/>
</svg>